<svg xmlns="http://www.w3.org/2000/svg" viewBox="0 0 144.02 42.98"><defs><style>.cls-1{fill:#fff;}.cls-2{fill:none;}.cls-2,.cls-3{stroke:#77c3ed;stroke-miterlimit:10;stroke-width:0.25px;}.cls-3{fill:#77c3ed;}</style></defs><title>letsgoAsset 2</title><g id="Layer_2" data-name="Layer 2"><g id="Layer_1-2" data-name="Layer 1"><path class="cls-1" d="M34.62,40.8V14.91H39V36.29h10.5V40.8Z"/><path class="cls-1" d="M59.91,41.28A8.24,8.24,0,0,1,55.38,40a9.61,9.61,0,0,1-3.25-3.53,10.25,10.25,0,0,1,1.42-11.79,9,9,0,0,1,2.87-2.1,8.12,8.12,0,0,1,3.49-.76,8.24,8.24,0,0,1,3.86.92,9,9,0,0,1,3,2.5,10.52,10.52,0,0,1,2,7.88H55.63A5.39,5.39,0,0,0,56.45,35a4.27,4.27,0,0,0,1.46,1.31,4.15,4.15,0,0,0,2,.51,3.89,3.89,0,0,0,2.1-.56,4.94,4.94,0,0,0,1.57-1.58l4.48,1.07a9.73,9.73,0,0,1-3.27,4A8.18,8.18,0,0,1,59.91,41.28ZM55.48,29.71h8.86a5,5,0,0,0-2.41-3.44,4,4,0,0,0-4,0,4.9,4.9,0,0,0-1.56,1.42A5.44,5.44,0,0,0,55.48,29.71Z"/><path class="cls-1" d="M81.38,26.82H77.89v14H73.5v-14H70.83V22.31H73.5V16.5h4.39v5.81h3.49Z"/><path class="cls-1" d="M89.66,41.13A9.31,9.31,0,0,1,87,40.55a7.57,7.57,0,0,1-2.31-1.34,5.79,5.79,0,0,1-1.55-2l3.71-1.63a3.22,3.22,0,0,0,.7.79,4.69,4.69,0,0,0,1.16.69,4,4,0,0,0,1.49.28,4.31,4.31,0,0,0,1.3-.2,2.31,2.31,0,0,0,1-.6,1.45,1.45,0,0,0,.39-1,1.34,1.34,0,0,0-.46-1.07,3.18,3.18,0,0,0-1.15-.57l-1.34-.36a12.7,12.7,0,0,1-3.18-1.09,6.7,6.7,0,0,1-2.36-1.91,4.6,4.6,0,0,1-.89-2.84,5.42,5.42,0,0,1,.94-3.17,6.41,6.41,0,0,1,2.47-2.05,7.58,7.58,0,0,1,3.29-.72,8.55,8.55,0,0,1,3.93.92,7.05,7.05,0,0,1,2.83,2.58l-3.47,2.1a3.12,3.12,0,0,0-.7-.82,4.24,4.24,0,0,0-1-.63,3.51,3.51,0,0,0-1.2-.28,4.66,4.66,0,0,0-1.48.14,2.33,2.33,0,0,0-1.07.63,1.7,1.7,0,0,0-.41,1.19,1.16,1.16,0,0,0,.54,1,4.48,4.48,0,0,0,1.31.53c.51.12,1,.26,1.47.4a18.1,18.1,0,0,1,3,1.32,7.15,7.15,0,0,1,2.25,1.9,4.18,4.18,0,0,1,.8,2.7,5,5,0,0,1-1,3.14,6.63,6.63,0,0,1-2.69,2A7.32,7.32,0,0,1,89.66,41.13Z"/><path class="cls-1" d="M111.66,41.28a11.42,11.42,0,0,1-4.89-1.05,12.13,12.13,0,0,1-3.93-2.91A13.78,13.78,0,0,1,100.22,33a14.3,14.3,0,0,1-1-5.21,13.73,13.73,0,0,1,1-5.36,13.22,13.22,0,0,1,2.78-4.24,12.76,12.76,0,0,1,4-2.77,11.49,11.49,0,0,1,10,.32,12.79,12.79,0,0,1,4.53,4L117.63,22a7.89,7.89,0,0,0-2.76-2.27,7.15,7.15,0,0,0-6.21-.08,7.86,7.86,0,0,0-2.57,1.88,8.88,8.88,0,0,0-1.78,2.84,9.74,9.74,0,0,0-.65,3.58,9.43,9.43,0,0,0,.63,3.45A9,9,0,0,0,106,34.19a8.11,8.11,0,0,0,2.57,1.9,7.34,7.34,0,0,0,3.13.68,6.78,6.78,0,0,0,2.18-.36,7.34,7.34,0,0,0,2-1,8,8,0,0,0,1.69-1.66,9.19,9.19,0,0,0,1.25-2.22h-4.59V27.54H124a13.77,13.77,0,0,1-3.51,9.69,12.57,12.57,0,0,1-4,3A11.35,11.35,0,0,1,111.66,41.28Z"/><path class="cls-1" d="M135,41.28A8.24,8.24,0,0,1,130.49,40a9.69,9.69,0,0,1-3.26-3.52,10.56,10.56,0,0,1-.51-8.69,9.84,9.84,0,0,1,1.94-3.11,8.87,8.87,0,0,1,2.87-2.1,8.12,8.12,0,0,1,3.49-.76,8.23,8.23,0,0,1,4.52,1.31,9.59,9.59,0,0,1,3.26,3.54A10.08,10.08,0,0,1,144,31.56a10,10,0,0,1-2.64,6.87,9,9,0,0,1-2.86,2.09A8.13,8.13,0,0,1,135,41.28Zm0-4.51a4.08,4.08,0,0,0,2.36-.72A5.08,5.08,0,0,0,139,34.14a5.8,5.8,0,0,0,0-5.22,5.05,5.05,0,0,0-1.67-1.9,4.11,4.11,0,0,0-4.65,0A5.2,5.2,0,0,0,131,29a5.63,5.63,0,0,0-.61,2.61A5.53,5.53,0,0,0,131,34.2a5.1,5.1,0,0,0,1.68,1.88A4.13,4.13,0,0,0,135,36.77Z"/><path class="cls-2" d="M1.75,42.43h2.4l1.06-.32V40.29l.26,0c.19-.64,1.88-7.83,1.88-7.83l1.17-3.18c0,.69,0,1.36.06,1.94,0,.11-.05.22-.07.33A31.23,31.23,0,0,0,7,40.28a.79.79,0,0,0,.17.2L6.71,42.3h3.46l0-.06h1.74a.08.08,0,0,1,0,0s0,.08,0,.09h4.5c0-.1,0-.2,0-.3h1c1.13.08,2,0,2,0h0a9.71,9.71,0,0,0,1.26,0l0,.21h3.46L24,41.77l-1.14-.52,0-.45c.33,0,.57-.08.6-.16.22-.83,1.11-5.81,1.83-7.83h0c.23-.53.57-1.89,1-3.11.11.83.21,1.61.27,2.28-.19.54-1.2,2.8-.83,8.61a2.09,2.09,0,0,0,.27.08,5.07,5.07,0,0,0-.13,1.07s.08.48.09.49h4.51c0-.1,0-.2,0-.3a23.56,23.56,0,0,1-2.86-1.25,1.44,1.44,0,0,0,.51-.22,71.35,71.35,0,0,1,1.42-8.86c.38-2.65-.58-8.85-.76-10h0a2.62,2.62,0,0,0,.13-.68,2.68,2.68,0,0,0,0-.44v-.11c0-1.18-.08-3.43-.37-8.11.2-.59.32-.91.66-2.07l.3-1a5.81,5.81,0,0,0,.05-1.31.14.14,0,0,0,0-.06A21.38,21.38,0,0,0,28,2.76h0a1.35,1.35,0,0,0-.38-1s-.1-.11-.2-.2a2.75,2.75,0,0,0,.11-1c-.09-.12-.16,0-.16,0s-.15.54-.22.82l-.16,0c-.1-.37-.31-1-.46-1.11s-.19.08-.19.08.17.7.25,1.07l-.06,0c-.2-.29-.66-1-.87-1s-.18.19-.18.19.54.73.73,1a.74.74,0,0,0-.12.13,3.93,3.93,0,0,0-.8-.56c-.19-.08-.11.18-.11.18l.93.89a1.1,1.1,0,0,0,.12.16c.08.24-.31.24-.36.24s-.39,0-.39.29a1,1,0,0,1,.55,0,2.73,2.73,0,0,0,.89.24h0a.14.14,0,0,0,0,.09c.41,1.39.4,3.68.66,4.83-.24.53-.61,1.43-1,2.39l-.42.42L26,10.68a.48.48,0,0,0,.36-.26,3.65,3.65,0,0,0,0-2.1l.33-.09-.38-.13a1.31,1.31,0,0,0,.95-.38.91.91,0,0,0-.45-.54,1.25,1.25,0,0,0-1.14-.88A1.17,1.17,0,0,0,25,6.05a2.35,2.35,0,0,0-1.19.15c0-.8,0-1.51,0-1.68a1.13,1.13,0,0,0,.13-1.06,2.34,2.34,0,0,0-.09-.24c.15-.18.46-.6.44-.71s-.12-.07-.12-.07-.31.38-.48.56l-.11-.09c0-.06,0-.14,0-.22a2,2,0,0,1,.26,0,.24.24,0,0,0-.23-.2,1.16,1.16,0,0,0,0-.59.1.1,0,0,0-.18,0s-.06.33-.12.61a.49.49,0,0,1-.21,0,1.55,1.55,0,0,0-.05-.23.67.67,0,0,1,.06-.12c.17-.25.67-1,.73-1s0-.27-.14-.16A3.79,3.79,0,0,0,23,1.6a.78.78,0,0,0-.15-.1c.14-.32.47-1.08.52-1.15s0-.21-.21-.14-.53.8-.66,1.12l-.07,0c0-.38,0-1,0-1.09s0-.17-.2,0a3.12,3.12,0,0,0-.23,1.18l-.14.06c-.14-.25-.37-.7-.38-.75a.09.09,0,0,0-.16,0,2.76,2.76,0,0,0,.3.92l-.16.24a1.21,1.21,0,0,0-.21.85l-.07,0A29.8,29.8,0,0,0,20,6.34a1.17,1.17,0,0,0-.84-.12.24.24,0,0,0-.13,0c-.18,0-.85.12-1,0A.53.53,0,0,0,17.7,6,11,11,0,0,0,18,4.46c0-.07-.11-.13-.27-.19a1.19,1.19,0,0,0,.29-1s0-.14,0-.25c.18-.16.56-.51.57-.63s-.11-.08-.11-.08l-.58.46-.09-.11a2.79,2.79,0,0,0,.25-1c-.08-.16-.18,0-.18,0s-.24.58-.37.89H17.4c0-.3,0-1-.12-1.14s-.22,0-.22,0,0,.8,0,1.1l-.16,0a3,3,0,0,0-.28-.81c-.09-.16-.18.07-.18.07s.17.84.21,1.1v.19c-.06.21-.33,0-.37,0s-.29-.2-.43,0c0,0,.31.16.37.32a2.14,2.14,0,0,0,.54.64,0,0,0,0,0,0,0,24.22,24.22,0,0,1-1.22,3.54A23.11,23.11,0,0,0,14.1,2.83h0a1.36,1.36,0,0,0-.39-1s-.1-.11-.2-.2a2.32,2.32,0,0,0,.11-.95c-.08-.13-.15,0-.15,0s-.15.54-.23.82l-.16,0A3.14,3.14,0,0,0,12.62.28c-.18-.09-.19.09-.19.09s.17.69.25,1.06l-.07,0c-.19-.29-.66-1-.87-1s-.17.18-.17.18.53.73.73,1l-.12.13a4,4,0,0,0-.81-.56c-.18-.08-.11.19-.11.19s.71.66.93.88l.12.16c.09.24-.3.24-.35.25s-.4,0-.4.28a1.07,1.07,0,0,1,.56.05,2.51,2.51,0,0,0,.89.24h0a.14.14,0,0,0,0,.09c.4,1.39.39,3.68.66,4.83-.17.36-.39.9-.63,1.51l-.52.32a4.55,4.55,0,0,0-.13-1.69l.32-.09-.38-.13a1.34,1.34,0,0,0,1-.37,1,1,0,0,0-.45-.55,1.26,1.26,0,0,0-1.15-.88,1.12,1.12,0,0,0-.61-.25,2.9,2.9,0,0,0-.81,0A.33.33,0,0,0,10,6a1.8,1.8,0,0,0-1.81-.42,13.67,13.67,0,0,1,.4-2.16.18.18,0,0,0,0-.14s0,0,0,0a2.5,2.5,0,0,0,.83-.42,1.15,1.15,0,0,1,.54-.15c-.06-.28-.39-.21-.45-.2s-.43.08-.39-.17l.08-.19c.17-.25.68-1,.74-1s0-.27-.15-.16a4.13,4.13,0,0,0-.68.71.71.71,0,0,0-.14-.1c.14-.32.46-1.08.51-1.15s0-.21-.2-.14-.53.8-.66,1.12l-.07,0c0-.38,0-1,0-1.09S8.5.12,8.34.24a3.37,3.37,0,0,0-.22,1.18L8,1.49,7.59.73S7.5.64,7.44.78a2.57,2.57,0,0,0,.3.91c-.08.11-.16.24-.16.24a1.16,1.16,0,0,0-.21.85l-.08,0A27.72,27.72,0,0,0,5.54,8.38a.29.29,0,0,0,0,.2.25.25,0,0,0,0,.08.41.41,0,0,0,0,.1.19.19,0,0,0,.08.15c.17.55.58,1.59,1,2.67a2,2,0,0,0-1.27,1A24.59,24.59,0,0,0,5.52,16l.92,2.55.18,2.68h0l-.74,4.22-1.29,7s-.7,2.63-.81,3.44c0,.35-.55,4.19-.55,4.19l.42.14a3.46,3.46,0,0,1-.39.54c-.45.53-1.22,1-1.33,1.22C1.7,42.33,1.75,42.43,1.75,42.43Zm18.1-3.93c.17-.52.5-1.54,1-3.19A8.83,8.83,0,0,0,21.09,31h0a18.26,18.26,0,0,0,.37-2.13A24.59,24.59,0,0,0,22,21.76l.15-.06-.73-4.08c0-.47.07-.93.1-1.3a3,3,0,0,0,.61-.78l.91,2.68s.09,2.49.21,3.41c0,0,.1,2.44.17,3.53a52.27,52.27,0,0,1-1,6.28,31.23,31.23,0,0,0-1.56,8.77.67.67,0,0,0,.18.2l-.26,1.14a.82.82,0,0,0-.35-.29l-.25-.07C20,41,19.39,40.38,19.85,38.5Zm2.93-28.25.55-1.05h0c-.13.19.1.75.61,1,0,.19.09.39.13.6l-.37-.17-.1,1h0l-.25-.43h0l0,0,0,0h0C23.12,10.8,23,10.52,22.78,10.25Zm-1.63,2.83,0,0h0v0ZM18.94,11l.16,0-.14.1A.19.19,0,0,1,18.94,11Zm-3.85-.27.44-.46,0,.21a3,3,0,0,0,.59.41,2.16,2.16,0,0,0,1.54,0,.91.91,0,0,1-.75.87l-.18,0a3.23,3.23,0,0,0-.61.24,2.4,2.4,0,0,0-1.41,1.76c0-.45-.06-.92-.09-1.43C14.74,11.84,14.85,11.53,15.09,10.73Zm7.46-7.21a.12.12,0,0,1-.11.12c0-.09,0-.17.07-.25a.13.13,0,0,0,0-.06h0S22.54,3.45,22.55,3.52Zm.34.95a9.45,9.45,0,0,1-.72,3.41v0h0s-.13.23-.35.56c.19-1.23.26-3,.54-4.4a1.63,1.63,0,0,0,.49.36s0,0,0,0ZM17.61,38.9h0l1.26-2.82c-.07.72-.16,1.77-.17,2.37h0A14.62,14.62,0,0,1,18,41.09h-.27C17.05,40.4,17.61,38.9,17.61,38.9Zm-1.84,2.86c-.87-.35-1.78-.79-2.2-1a1.72,1.72,0,0,0,.52-.23,72.48,72.48,0,0,1,1.41-8.86c.38-2.65-.57-8.85-.75-10h0a2.14,2.14,0,0,0,.11-.41,20.23,20.23,0,0,0,.88-2.46h0c.2-.75.4-1.53.58-2.23a11.85,11.85,0,0,1,.49,1.22l.15.49-1.09,3.05.15.09c-2,3.4,1.17,7.59,1.17,7.59h0c.56,1,1.09,1.94,1.19,2.12A10.24,10.24,0,0,0,17,34.08c-.12.56-.53,3.45-.61,4.66a22.37,22.37,0,0,1-.56,2.61s0,.07,0,.1A.51.51,0,0,0,15.77,41.76Zm-4.37-.17a3.43,3.43,0,0,1-2-1,.52.52,0,0,1,0-.11,2.32,2.32,0,0,0,.45-.15c.06-.45.51-3.61.78-5.55.18-.73.37-1.4.54-1.89h0c.23-.53.58-1.89,1-3.11.11.83.2,1.62.27,2.28-.19.54-1.2,2.8-.84,8.61l.28.08a5.16,5.16,0,0,0-.14,1.07l0,.13A.88.88,0,0,0,11.4,41.59Z"/><ellipse class="cls-3" cx="34.38" cy="41.99" rx="34.26" ry="0.87"/></g></g></svg>